<svg xmlns="http://www.w3.org/2000/svg" width="1200" height="680" viewBox="0 0 1200 680" role="img" aria-labelledby="title desc">
  <title id="title">AI Image Generation Pricing Comparison</title>
  <desc id="desc">AI tool comparison cover for AI Image Generation Pricing Comparison</desc>
  <defs>
    <linearGradient id="bg" x1="0" x2="1" y1="0" y2="1">
      <stop offset="0" stop-color="#0f172a"/>
      <stop offset="0.5" stop-color="#1e293b"/>
      <stop offset="1" stop-color="#0f172a"/>
    </linearGradient>
    <linearGradient id="accent" x1="0" x2="1">
      <stop offset="0" stop-color="#8b5cf6"/>
      <stop offset="1" stop-color="#7c3aed"/>
    </linearGradient>
  </defs>
  <rect width="1200" height="680" fill="url(#bg)"/>
  <circle cx="600" cy="340" r="400" fill="#8b5cf6" opacity="0.05"/>
  <circle cx="600" cy="340" r="300" fill="#8b5cf6" opacity="0.05"/>
  <circle cx="600" cy="340" r="200" fill="#8b5cf6" opacity="0.05"/>
  <rect x="50" y="50" width="1100" height="580" rx="24" fill="#1e293b" stroke="#8b5cf6" stroke-opacity="0.3" stroke-width="2"/>
  <rect x="50" y="50" width="1100" height="100" rx="24" fill="url(#accent)"/>
  <rect x="50" y="126" width="1100" height="24" fill="url(#accent)"/>
  <text x="100" y="110" font-family="system-ui,sans-serif" font-size="28" font-weight="700" fill="#fff">⚖️ AI Image Generation Pricing Comparison</text>
  <g transform="translate(80, 200)">
    <rect width="480" height="380" rx="16" fill="#0f172a" stroke="#8b5cf6" stroke-opacity="0.3" stroke-width="1"/>
    <rect width="480" height="60" rx="16" fill="#8b5cf6" opacity="0.2"/>
    <rect y="44" width="480" height="16" fill="#8b5cf6" opacity="0.2"/>
    <text x="240" y="40" font-family="system-ui,sans-serif" font-size="18" font-weight="600" fill="#f8fafc" text-anchor="middle">Option A</text>
    <g transform="translate(30, 90)">
      <rect width="420" height="50" rx="8" fill="#8b5cf6" opacity="0.1"/>
      <text x="20" y="32" font-family="system-ui,sans-serif" font-size="16" fill="#f8fafc">Feature 1: Excellent</text>
      <rect x="340" y="14" width="60" height="24" rx="12" fill="#22c55e"/>
      <text x="370" y="32" font-family="system-ui,sans-serif" font-size="12" fill="#fff" text-anchor="middle">✓</text>
    </g>
    <g transform="translate(30, 150)">
      <rect width="420" height="50" rx="8" fill="#8b5cf6" opacity="0.1"/>
      <text x="20" y="32" font-family="system-ui,sans-serif" font-size="16" fill="#f8fafc">Feature 2: Good</text>
      <rect x="340" y="14" width="60" height="24" rx="12" fill="#22c55e"/>
      <text x="370" y="32" font-family="system-ui,sans-serif" font-size="12" fill="#fff" text-anchor="middle">✓</text>
    </g>
    <g transform="translate(30, 210)">
      <rect width="420" height="50" rx="8" fill="#8b5cf6" opacity="0.1"/>
      <text x="20" y="32" font-family="system-ui,sans-serif" font-size="16" fill="#f8fafc">Feature 3: Average</text>
      <rect x="340" y="14" width="60" height="24" rx="12" fill="#eab308"/>
      <text x="370" y="32" font-family="system-ui,sans-serif" font-size="12" fill="#fff" text-anchor="middle">~</text>
    </g>
    <text x="240" y="320" font-family="system-ui,sans-serif" font-size="24" font-weight="700" fill="#8b5cf6" text-anchor="middle">$10/mo</text>
    <text x="240" y="350" font-family="system-ui,sans-serif" font-size="14" fill="#c4b5fd" text-anchor="middle">Starting price</text>
  </g>
  <g transform="translate(640, 200)">
    <rect width="480" height="380" rx="16" fill="#0f172a" stroke="#7c3aed" stroke-opacity="0.3" stroke-width="1"/>
    <rect width="480" height="60" rx="16" fill="#7c3aed" opacity="0.2"/>
    <rect y="44" width="480" height="16" fill="#7c3aed" opacity="0.2"/>
    <text x="240" y="40" font-family="system-ui,sans-serif" font-size="18" font-weight="600" fill="#f8fafc" text-anchor="middle">Option B</text>
    <g transform="translate(30, 90)">
      <rect width="420" height="50" rx="8" fill="#7c3aed" opacity="0.1"/>
      <text x="20" y="32" font-family="system-ui,sans-serif" font-size="16" fill="#f8fafc">Feature 1: Good</text>
      <rect x="340" y="14" width="60" height="24" rx="12" fill="#22c55e"/>
      <text x="370" y="32" font-family="system-ui,sans-serif" font-size="12" fill="#fff" text-anchor="middle">✓</text>
    </g>
    <g transform="translate(30, 150)">
      <rect width="420" height="50" rx="8" fill="#7c3aed" opacity="0.1"/>
      <text x="20" y="32" font-family="system-ui,sans-serif" font-size="16" fill="#f8fafc">Feature 2: Excellent</text>
      <rect x="340" y="14" width="60" height="24" rx="12" fill="#22c55e"/>
      <text x="370" y="32" font-family="system-ui,sans-serif" font-size="12" fill="#fff" text-anchor="middle">✓</text>
    </g>
    <g transform="translate(30, 210)">
      <rect width="420" height="50" rx="8" fill="#7c3aed" opacity="0.1"/>
      <text x="20" y="32" font-family="system-ui,sans-serif" font-size="16" fill="#f8fafc">Feature 3: Excellent</text>
      <rect x="340" y="14" width="60" height="24" rx="12" fill="#22c55e"/>
      <text x="370" y="32" font-family="system-ui,sans-serif" font-size="12" fill="#fff" text-anchor="middle">✓</text>
    </g>
    <text x="240" y="320" font-family="system-ui,sans-serif" font-size="24" font-weight="700" fill="#7c3aed" text-anchor="middle">$15/mo</text>
    <text x="240" y="350" font-family="system-ui,sans-serif" font-size="14" fill="#c4b5fd" text-anchor="middle">Starting price</text>
  </g>
  <text x="600" y="610" font-family="system-ui,sans-serif" font-size="12" fill="rgba(255,255,255,0.3)" text-anchor="middle">AI Tool Compass • Image • 2026</text>
</svg>